<mxfile host="Electron" agent="Mozilla/5.0 (Windows NT 10.0; Win64; x64) AppleWebKit/537.36 (KHTML, like Gecko) draw.io/26.0.16 Chrome/132.0.6834.196 Electron/34.2.0 Safari/537.36" version="26.0.16">
  <diagram name="Page-1" id="OqxfILiTVRdeDqwVbgJ8">
    <mxGraphModel dx="439" dy="328" grid="1" gridSize="10" guides="1" tooltips="1" connect="1" arrows="1" fold="1" page="1" pageScale="1" pageWidth="827" pageHeight="1169" math="0" shadow="0">
      <root>
        <mxCell id="0" />
        <mxCell id="1" parent="0" />
        <mxCell id="1gPgea0F7_Sr2rKvdzRI-1" value="a" style="rounded=0;whiteSpace=wrap;html=1;" vertex="1" parent="1">
          <mxGeometry x="170" y="260" width="20" height="30" as="geometry" />
        </mxCell>
        <mxCell id="1gPgea0F7_Sr2rKvdzRI-2" value="b" style="rounded=0;whiteSpace=wrap;html=1;" vertex="1" parent="1">
          <mxGeometry x="190" y="260" width="20" height="30" as="geometry" />
        </mxCell>
        <mxCell id="1gPgea0F7_Sr2rKvdzRI-3" value="c" style="rounded=0;whiteSpace=wrap;html=1;" vertex="1" parent="1">
          <mxGeometry x="210" y="260" width="20" height="30" as="geometry" />
        </mxCell>
        <mxCell id="1gPgea0F7_Sr2rKvdzRI-4" value="b" style="rounded=0;whiteSpace=wrap;html=1;" vertex="1" parent="1">
          <mxGeometry x="230" y="260" width="20" height="30" as="geometry" />
        </mxCell>
        <mxCell id="1gPgea0F7_Sr2rKvdzRI-5" value="b" style="rounded=0;whiteSpace=wrap;html=1;" vertex="1" parent="1">
          <mxGeometry x="250" y="260" width="20" height="30" as="geometry" />
        </mxCell>
        <mxCell id="1gPgea0F7_Sr2rKvdzRI-6" value="c" style="rounded=0;whiteSpace=wrap;html=1;" vertex="1" parent="1">
          <mxGeometry x="270" y="260" width="20" height="30" as="geometry" />
        </mxCell>
        <mxCell id="1gPgea0F7_Sr2rKvdzRI-7" value="a" style="rounded=0;whiteSpace=wrap;html=1;" vertex="1" parent="1">
          <mxGeometry x="290" y="260" width="20" height="30" as="geometry" />
        </mxCell>
        <mxCell id="1gPgea0F7_Sr2rKvdzRI-8" value="" style="endArrow=classic;html=1;rounded=0;" edge="1" parent="1">
          <mxGeometry width="50" height="50" relative="1" as="geometry">
            <mxPoint x="179.8" y="320" as="sourcePoint" />
            <mxPoint x="179.8" y="300" as="targetPoint" />
          </mxGeometry>
        </mxCell>
        <mxCell id="1gPgea0F7_Sr2rKvdzRI-9" value="i" style="edgeLabel;html=1;align=center;verticalAlign=middle;resizable=0;points=[];" vertex="1" connectable="0" parent="1gPgea0F7_Sr2rKvdzRI-8">
          <mxGeometry x="-0.28" y="1" relative="1" as="geometry">
            <mxPoint y="7" as="offset" />
          </mxGeometry>
        </mxCell>
        <mxCell id="1gPgea0F7_Sr2rKvdzRI-10" value="" style="endArrow=classic;html=1;rounded=0;" edge="1" parent="1">
          <mxGeometry width="50" height="50" relative="1" as="geometry">
            <mxPoint x="160" y="320" as="sourcePoint" />
            <mxPoint x="160" y="300" as="targetPoint" />
          </mxGeometry>
        </mxCell>
        <mxCell id="1gPgea0F7_Sr2rKvdzRI-11" value="iLow" style="edgeLabel;html=1;align=center;verticalAlign=middle;resizable=0;points=[];fontSize=8;" vertex="1" connectable="0" parent="1gPgea0F7_Sr2rKvdzRI-10">
          <mxGeometry x="-0.28" y="1" relative="1" as="geometry">
            <mxPoint y="7" as="offset" />
          </mxGeometry>
        </mxCell>
        <mxCell id="1gPgea0F7_Sr2rKvdzRI-12" value="chrFreq&lt;div&gt;a:1&lt;/div&gt;" style="text;html=1;align=center;verticalAlign=middle;whiteSpace=wrap;rounded=0;" vertex="1" parent="1">
          <mxGeometry x="340" y="260" width="60" height="30" as="geometry" />
        </mxCell>
        <mxCell id="1gPgea0F7_Sr2rKvdzRI-13" value="a" style="rounded=0;whiteSpace=wrap;html=1;" vertex="1" parent="1">
          <mxGeometry x="170" y="350" width="20" height="30" as="geometry" />
        </mxCell>
        <mxCell id="1gPgea0F7_Sr2rKvdzRI-14" value="b" style="rounded=0;whiteSpace=wrap;html=1;" vertex="1" parent="1">
          <mxGeometry x="190" y="350" width="20" height="30" as="geometry" />
        </mxCell>
        <mxCell id="1gPgea0F7_Sr2rKvdzRI-15" value="c" style="rounded=0;whiteSpace=wrap;html=1;" vertex="1" parent="1">
          <mxGeometry x="210" y="350" width="20" height="30" as="geometry" />
        </mxCell>
        <mxCell id="1gPgea0F7_Sr2rKvdzRI-16" value="b" style="rounded=0;whiteSpace=wrap;html=1;" vertex="1" parent="1">
          <mxGeometry x="230" y="350" width="20" height="30" as="geometry" />
        </mxCell>
        <mxCell id="1gPgea0F7_Sr2rKvdzRI-17" value="b" style="rounded=0;whiteSpace=wrap;html=1;" vertex="1" parent="1">
          <mxGeometry x="250" y="350" width="20" height="30" as="geometry" />
        </mxCell>
        <mxCell id="1gPgea0F7_Sr2rKvdzRI-18" value="c" style="rounded=0;whiteSpace=wrap;html=1;" vertex="1" parent="1">
          <mxGeometry x="270" y="350" width="20" height="30" as="geometry" />
        </mxCell>
        <mxCell id="1gPgea0F7_Sr2rKvdzRI-19" value="a" style="rounded=0;whiteSpace=wrap;html=1;" vertex="1" parent="1">
          <mxGeometry x="290" y="350" width="20" height="30" as="geometry" />
        </mxCell>
        <mxCell id="1gPgea0F7_Sr2rKvdzRI-20" value="" style="endArrow=classic;html=1;rounded=0;" edge="1" parent="1">
          <mxGeometry width="50" height="50" relative="1" as="geometry">
            <mxPoint x="199.8" y="410" as="sourcePoint" />
            <mxPoint x="199.8" y="390" as="targetPoint" />
          </mxGeometry>
        </mxCell>
        <mxCell id="1gPgea0F7_Sr2rKvdzRI-21" value="i" style="edgeLabel;html=1;align=center;verticalAlign=middle;resizable=0;points=[];" vertex="1" connectable="0" parent="1gPgea0F7_Sr2rKvdzRI-20">
          <mxGeometry x="-0.28" y="1" relative="1" as="geometry">
            <mxPoint y="7" as="offset" />
          </mxGeometry>
        </mxCell>
        <mxCell id="1gPgea0F7_Sr2rKvdzRI-22" value="" style="endArrow=classic;html=1;rounded=0;" edge="1" parent="1">
          <mxGeometry width="50" height="50" relative="1" as="geometry">
            <mxPoint x="160" y="410" as="sourcePoint" />
            <mxPoint x="160" y="390" as="targetPoint" />
          </mxGeometry>
        </mxCell>
        <mxCell id="1gPgea0F7_Sr2rKvdzRI-23" value="iLow" style="edgeLabel;html=1;align=center;verticalAlign=middle;resizable=0;points=[];fontSize=8;" vertex="1" connectable="0" parent="1gPgea0F7_Sr2rKvdzRI-22">
          <mxGeometry x="-0.28" y="1" relative="1" as="geometry">
            <mxPoint y="7" as="offset" />
          </mxGeometry>
        </mxCell>
        <mxCell id="1gPgea0F7_Sr2rKvdzRI-24" value="chrFreq&lt;div&gt;a:1&lt;/div&gt;&lt;div&gt;b:1&lt;/div&gt;" style="text;html=1;align=center;verticalAlign=middle;whiteSpace=wrap;rounded=0;" vertex="1" parent="1">
          <mxGeometry x="340" y="350" width="60" height="50" as="geometry" />
        </mxCell>
        <mxCell id="1gPgea0F7_Sr2rKvdzRI-26" value="a" style="rounded=0;whiteSpace=wrap;html=1;" vertex="1" parent="1">
          <mxGeometry x="170" y="440" width="20" height="30" as="geometry" />
        </mxCell>
        <mxCell id="1gPgea0F7_Sr2rKvdzRI-27" value="b" style="rounded=0;whiteSpace=wrap;html=1;" vertex="1" parent="1">
          <mxGeometry x="190" y="440" width="20" height="30" as="geometry" />
        </mxCell>
        <mxCell id="1gPgea0F7_Sr2rKvdzRI-28" value="c" style="rounded=0;whiteSpace=wrap;html=1;" vertex="1" parent="1">
          <mxGeometry x="210" y="440" width="20" height="30" as="geometry" />
        </mxCell>
        <mxCell id="1gPgea0F7_Sr2rKvdzRI-29" value="b" style="rounded=0;whiteSpace=wrap;html=1;" vertex="1" parent="1">
          <mxGeometry x="230" y="440" width="20" height="30" as="geometry" />
        </mxCell>
        <mxCell id="1gPgea0F7_Sr2rKvdzRI-30" value="b" style="rounded=0;whiteSpace=wrap;html=1;" vertex="1" parent="1">
          <mxGeometry x="250" y="440" width="20" height="30" as="geometry" />
        </mxCell>
        <mxCell id="1gPgea0F7_Sr2rKvdzRI-31" value="c" style="rounded=0;whiteSpace=wrap;html=1;" vertex="1" parent="1">
          <mxGeometry x="270" y="440" width="20" height="30" as="geometry" />
        </mxCell>
        <mxCell id="1gPgea0F7_Sr2rKvdzRI-32" value="a" style="rounded=0;whiteSpace=wrap;html=1;" vertex="1" parent="1">
          <mxGeometry x="290" y="440" width="20" height="30" as="geometry" />
        </mxCell>
        <mxCell id="1gPgea0F7_Sr2rKvdzRI-33" value="" style="endArrow=classic;html=1;rounded=0;" edge="1" parent="1">
          <mxGeometry width="50" height="50" relative="1" as="geometry">
            <mxPoint x="219.8" y="500" as="sourcePoint" />
            <mxPoint x="219.8" y="480" as="targetPoint" />
          </mxGeometry>
        </mxCell>
        <mxCell id="1gPgea0F7_Sr2rKvdzRI-34" value="i" style="edgeLabel;html=1;align=center;verticalAlign=middle;resizable=0;points=[];" vertex="1" connectable="0" parent="1gPgea0F7_Sr2rKvdzRI-33">
          <mxGeometry x="-0.28" y="1" relative="1" as="geometry">
            <mxPoint y="7" as="offset" />
          </mxGeometry>
        </mxCell>
        <mxCell id="1gPgea0F7_Sr2rKvdzRI-35" value="" style="endArrow=classic;html=1;rounded=0;" edge="1" parent="1">
          <mxGeometry width="50" height="50" relative="1" as="geometry">
            <mxPoint x="179.8" y="500" as="sourcePoint" />
            <mxPoint x="179.8" y="480" as="targetPoint" />
          </mxGeometry>
        </mxCell>
        <mxCell id="1gPgea0F7_Sr2rKvdzRI-36" value="iLow" style="edgeLabel;html=1;align=center;verticalAlign=middle;resizable=0;points=[];fontSize=8;" vertex="1" connectable="0" parent="1gPgea0F7_Sr2rKvdzRI-35">
          <mxGeometry x="-0.28" y="1" relative="1" as="geometry">
            <mxPoint y="7" as="offset" />
          </mxGeometry>
        </mxCell>
        <mxCell id="1gPgea0F7_Sr2rKvdzRI-37" value="chrFreq&lt;div&gt;a:1&lt;/div&gt;&lt;div&gt;b:1&lt;/div&gt;&lt;div&gt;c:1&lt;/div&gt;" style="text;html=1;align=center;verticalAlign=middle;whiteSpace=wrap;rounded=0;" vertex="1" parent="1">
          <mxGeometry x="340" y="440" width="60" height="50" as="geometry" />
        </mxCell>
        <mxCell id="1gPgea0F7_Sr2rKvdzRI-39" value="a" style="rounded=0;whiteSpace=wrap;html=1;" vertex="1" parent="1">
          <mxGeometry x="170" y="540" width="20" height="30" as="geometry" />
        </mxCell>
        <mxCell id="1gPgea0F7_Sr2rKvdzRI-40" value="b" style="rounded=0;whiteSpace=wrap;html=1;" vertex="1" parent="1">
          <mxGeometry x="190" y="540" width="20" height="30" as="geometry" />
        </mxCell>
        <mxCell id="1gPgea0F7_Sr2rKvdzRI-41" value="c" style="rounded=0;whiteSpace=wrap;html=1;" vertex="1" parent="1">
          <mxGeometry x="210" y="540" width="20" height="30" as="geometry" />
        </mxCell>
        <mxCell id="1gPgea0F7_Sr2rKvdzRI-42" value="b" style="rounded=0;whiteSpace=wrap;html=1;" vertex="1" parent="1">
          <mxGeometry x="230" y="540" width="20" height="30" as="geometry" />
        </mxCell>
        <mxCell id="1gPgea0F7_Sr2rKvdzRI-43" value="b" style="rounded=0;whiteSpace=wrap;html=1;" vertex="1" parent="1">
          <mxGeometry x="250" y="540" width="20" height="30" as="geometry" />
        </mxCell>
        <mxCell id="1gPgea0F7_Sr2rKvdzRI-44" value="c" style="rounded=0;whiteSpace=wrap;html=1;" vertex="1" parent="1">
          <mxGeometry x="270" y="540" width="20" height="30" as="geometry" />
        </mxCell>
        <mxCell id="1gPgea0F7_Sr2rKvdzRI-45" value="a" style="rounded=0;whiteSpace=wrap;html=1;" vertex="1" parent="1">
          <mxGeometry x="290" y="540" width="20" height="30" as="geometry" />
        </mxCell>
        <mxCell id="1gPgea0F7_Sr2rKvdzRI-46" value="" style="endArrow=classic;html=1;rounded=0;" edge="1" parent="1">
          <mxGeometry width="50" height="50" relative="1" as="geometry">
            <mxPoint x="239.8" y="600" as="sourcePoint" />
            <mxPoint x="239.8" y="580" as="targetPoint" />
          </mxGeometry>
        </mxCell>
        <mxCell id="1gPgea0F7_Sr2rKvdzRI-47" value="i" style="edgeLabel;html=1;align=center;verticalAlign=middle;resizable=0;points=[];" vertex="1" connectable="0" parent="1gPgea0F7_Sr2rKvdzRI-46">
          <mxGeometry x="-0.28" y="1" relative="1" as="geometry">
            <mxPoint y="7" as="offset" />
          </mxGeometry>
        </mxCell>
        <mxCell id="1gPgea0F7_Sr2rKvdzRI-48" value="" style="endArrow=classic;html=1;rounded=0;" edge="1" parent="1">
          <mxGeometry width="50" height="50" relative="1" as="geometry">
            <mxPoint x="179.8" y="600" as="sourcePoint" />
            <mxPoint x="179.8" y="580" as="targetPoint" />
          </mxGeometry>
        </mxCell>
        <mxCell id="1gPgea0F7_Sr2rKvdzRI-49" value="iLow" style="edgeLabel;html=1;align=center;verticalAlign=middle;resizable=0;points=[];fontSize=8;" vertex="1" connectable="0" parent="1gPgea0F7_Sr2rKvdzRI-48">
          <mxGeometry x="-0.28" y="1" relative="1" as="geometry">
            <mxPoint y="7" as="offset" />
          </mxGeometry>
        </mxCell>
        <mxCell id="1gPgea0F7_Sr2rKvdzRI-50" value="chrFreq&lt;div&gt;a:1&lt;/div&gt;&lt;div&gt;b:2&lt;/div&gt;&lt;div&gt;c:1&lt;/div&gt;" style="text;html=1;align=center;verticalAlign=middle;whiteSpace=wrap;rounded=0;" vertex="1" parent="1">
          <mxGeometry x="340" y="540" width="60" height="50" as="geometry" />
        </mxCell>
        <mxCell id="1gPgea0F7_Sr2rKvdzRI-52" value="a" style="rounded=0;whiteSpace=wrap;html=1;" vertex="1" parent="1">
          <mxGeometry x="170" y="650" width="20" height="30" as="geometry" />
        </mxCell>
        <mxCell id="1gPgea0F7_Sr2rKvdzRI-53" value="b" style="rounded=0;whiteSpace=wrap;html=1;" vertex="1" parent="1">
          <mxGeometry x="190" y="650" width="20" height="30" as="geometry" />
        </mxCell>
        <mxCell id="1gPgea0F7_Sr2rKvdzRI-54" value="c" style="rounded=0;whiteSpace=wrap;html=1;" vertex="1" parent="1">
          <mxGeometry x="210" y="650" width="20" height="30" as="geometry" />
        </mxCell>
        <mxCell id="1gPgea0F7_Sr2rKvdzRI-55" value="b" style="rounded=0;whiteSpace=wrap;html=1;" vertex="1" parent="1">
          <mxGeometry x="230" y="650" width="20" height="30" as="geometry" />
        </mxCell>
        <mxCell id="1gPgea0F7_Sr2rKvdzRI-56" value="b" style="rounded=0;whiteSpace=wrap;html=1;" vertex="1" parent="1">
          <mxGeometry x="250" y="650" width="20" height="30" as="geometry" />
        </mxCell>
        <mxCell id="1gPgea0F7_Sr2rKvdzRI-57" value="c" style="rounded=0;whiteSpace=wrap;html=1;" vertex="1" parent="1">
          <mxGeometry x="270" y="650" width="20" height="30" as="geometry" />
        </mxCell>
        <mxCell id="1gPgea0F7_Sr2rKvdzRI-58" value="a" style="rounded=0;whiteSpace=wrap;html=1;" vertex="1" parent="1">
          <mxGeometry x="290" y="650" width="20" height="30" as="geometry" />
        </mxCell>
        <mxCell id="1gPgea0F7_Sr2rKvdzRI-59" value="" style="endArrow=classic;html=1;rounded=0;" edge="1" parent="1">
          <mxGeometry width="50" height="50" relative="1" as="geometry">
            <mxPoint x="259.8" y="710" as="sourcePoint" />
            <mxPoint x="259.8" y="690" as="targetPoint" />
          </mxGeometry>
        </mxCell>
        <mxCell id="1gPgea0F7_Sr2rKvdzRI-60" value="i" style="edgeLabel;html=1;align=center;verticalAlign=middle;resizable=0;points=[];" vertex="1" connectable="0" parent="1gPgea0F7_Sr2rKvdzRI-59">
          <mxGeometry x="-0.28" y="1" relative="1" as="geometry">
            <mxPoint y="7" as="offset" />
          </mxGeometry>
        </mxCell>
        <mxCell id="1gPgea0F7_Sr2rKvdzRI-61" value="" style="endArrow=classic;html=1;rounded=0;" edge="1" parent="1">
          <mxGeometry width="50" height="50" relative="1" as="geometry">
            <mxPoint x="179.8" y="710" as="sourcePoint" />
            <mxPoint x="179.8" y="690" as="targetPoint" />
          </mxGeometry>
        </mxCell>
        <mxCell id="1gPgea0F7_Sr2rKvdzRI-62" value="iLow" style="edgeLabel;html=1;align=center;verticalAlign=middle;resizable=0;points=[];fontSize=8;" vertex="1" connectable="0" parent="1gPgea0F7_Sr2rKvdzRI-61">
          <mxGeometry x="-0.28" y="1" relative="1" as="geometry">
            <mxPoint y="7" as="offset" />
          </mxGeometry>
        </mxCell>
        <mxCell id="1gPgea0F7_Sr2rKvdzRI-63" value="chrFreq&lt;div&gt;a:1&lt;/div&gt;&lt;div&gt;b:3&lt;/div&gt;&lt;div&gt;c:1&lt;/div&gt;" style="text;html=1;align=center;verticalAlign=middle;whiteSpace=wrap;rounded=0;" vertex="1" parent="1">
          <mxGeometry x="340" y="650" width="60" height="50" as="geometry" />
        </mxCell>
        <mxCell id="1gPgea0F7_Sr2rKvdzRI-65" value="a" style="rounded=0;whiteSpace=wrap;html=1;" vertex="1" parent="1">
          <mxGeometry x="170" y="760" width="20" height="30" as="geometry" />
        </mxCell>
        <mxCell id="1gPgea0F7_Sr2rKvdzRI-66" value="b" style="rounded=0;whiteSpace=wrap;html=1;" vertex="1" parent="1">
          <mxGeometry x="190" y="760" width="20" height="30" as="geometry" />
        </mxCell>
        <mxCell id="1gPgea0F7_Sr2rKvdzRI-67" value="c" style="rounded=0;whiteSpace=wrap;html=1;" vertex="1" parent="1">
          <mxGeometry x="210" y="760" width="20" height="30" as="geometry" />
        </mxCell>
        <mxCell id="1gPgea0F7_Sr2rKvdzRI-68" value="b" style="rounded=0;whiteSpace=wrap;html=1;" vertex="1" parent="1">
          <mxGeometry x="230" y="760" width="20" height="30" as="geometry" />
        </mxCell>
        <mxCell id="1gPgea0F7_Sr2rKvdzRI-69" value="b" style="rounded=0;whiteSpace=wrap;html=1;" vertex="1" parent="1">
          <mxGeometry x="250" y="760" width="20" height="30" as="geometry" />
        </mxCell>
        <mxCell id="1gPgea0F7_Sr2rKvdzRI-70" value="c" style="rounded=0;whiteSpace=wrap;html=1;" vertex="1" parent="1">
          <mxGeometry x="270" y="760" width="20" height="30" as="geometry" />
        </mxCell>
        <mxCell id="1gPgea0F7_Sr2rKvdzRI-71" value="a" style="rounded=0;whiteSpace=wrap;html=1;" vertex="1" parent="1">
          <mxGeometry x="290" y="760" width="20" height="30" as="geometry" />
        </mxCell>
        <mxCell id="1gPgea0F7_Sr2rKvdzRI-72" value="" style="endArrow=classic;html=1;rounded=0;" edge="1" parent="1">
          <mxGeometry width="50" height="50" relative="1" as="geometry">
            <mxPoint x="279.8" y="820" as="sourcePoint" />
            <mxPoint x="279.8" y="800" as="targetPoint" />
          </mxGeometry>
        </mxCell>
        <mxCell id="1gPgea0F7_Sr2rKvdzRI-73" value="i" style="edgeLabel;html=1;align=center;verticalAlign=middle;resizable=0;points=[];" vertex="1" connectable="0" parent="1gPgea0F7_Sr2rKvdzRI-72">
          <mxGeometry x="-0.28" y="1" relative="1" as="geometry">
            <mxPoint y="7" as="offset" />
          </mxGeometry>
        </mxCell>
        <mxCell id="1gPgea0F7_Sr2rKvdzRI-74" value="" style="endArrow=classic;html=1;rounded=0;" edge="1" parent="1">
          <mxGeometry width="50" height="50" relative="1" as="geometry">
            <mxPoint x="179.8" y="820" as="sourcePoint" />
            <mxPoint x="179.8" y="800" as="targetPoint" />
          </mxGeometry>
        </mxCell>
        <mxCell id="1gPgea0F7_Sr2rKvdzRI-75" value="iLow" style="edgeLabel;html=1;align=center;verticalAlign=middle;resizable=0;points=[];fontSize=8;" vertex="1" connectable="0" parent="1gPgea0F7_Sr2rKvdzRI-74">
          <mxGeometry x="-0.28" y="1" relative="1" as="geometry">
            <mxPoint y="7" as="offset" />
          </mxGeometry>
        </mxCell>
        <mxCell id="1gPgea0F7_Sr2rKvdzRI-76" value="chrFreq&lt;div&gt;a:1&lt;/div&gt;&lt;div&gt;b:3&lt;/div&gt;&lt;div&gt;c:2&lt;/div&gt;" style="text;html=1;align=center;verticalAlign=middle;whiteSpace=wrap;rounded=0;" vertex="1" parent="1">
          <mxGeometry x="340" y="760" width="60" height="50" as="geometry" />
        </mxCell>
        <mxCell id="1gPgea0F7_Sr2rKvdzRI-78" value="a" style="rounded=0;whiteSpace=wrap;html=1;" vertex="1" parent="1">
          <mxGeometry x="170" y="860" width="20" height="30" as="geometry" />
        </mxCell>
        <mxCell id="1gPgea0F7_Sr2rKvdzRI-79" value="b" style="rounded=0;whiteSpace=wrap;html=1;" vertex="1" parent="1">
          <mxGeometry x="190" y="860" width="20" height="30" as="geometry" />
        </mxCell>
        <mxCell id="1gPgea0F7_Sr2rKvdzRI-80" value="c" style="rounded=0;whiteSpace=wrap;html=1;" vertex="1" parent="1">
          <mxGeometry x="210" y="860" width="20" height="30" as="geometry" />
        </mxCell>
        <mxCell id="1gPgea0F7_Sr2rKvdzRI-81" value="b" style="rounded=0;whiteSpace=wrap;html=1;" vertex="1" parent="1">
          <mxGeometry x="230" y="860" width="20" height="30" as="geometry" />
        </mxCell>
        <mxCell id="1gPgea0F7_Sr2rKvdzRI-82" value="b" style="rounded=0;whiteSpace=wrap;html=1;" vertex="1" parent="1">
          <mxGeometry x="250" y="860" width="20" height="30" as="geometry" />
        </mxCell>
        <mxCell id="1gPgea0F7_Sr2rKvdzRI-83" value="c" style="rounded=0;whiteSpace=wrap;html=1;" vertex="1" parent="1">
          <mxGeometry x="270" y="860" width="20" height="30" as="geometry" />
        </mxCell>
        <mxCell id="1gPgea0F7_Sr2rKvdzRI-84" value="a" style="rounded=0;whiteSpace=wrap;html=1;" vertex="1" parent="1">
          <mxGeometry x="290" y="860" width="20" height="30" as="geometry" />
        </mxCell>
        <mxCell id="1gPgea0F7_Sr2rKvdzRI-85" value="" style="endArrow=classic;html=1;rounded=0;" edge="1" parent="1">
          <mxGeometry width="50" height="50" relative="1" as="geometry">
            <mxPoint x="299.8" y="920" as="sourcePoint" />
            <mxPoint x="299.8" y="900" as="targetPoint" />
          </mxGeometry>
        </mxCell>
        <mxCell id="1gPgea0F7_Sr2rKvdzRI-86" value="i" style="edgeLabel;html=1;align=center;verticalAlign=middle;resizable=0;points=[];" vertex="1" connectable="0" parent="1gPgea0F7_Sr2rKvdzRI-85">
          <mxGeometry x="-0.28" y="1" relative="1" as="geometry">
            <mxPoint y="7" as="offset" />
          </mxGeometry>
        </mxCell>
        <mxCell id="1gPgea0F7_Sr2rKvdzRI-87" value="" style="endArrow=classic;html=1;rounded=0;" edge="1" parent="1">
          <mxGeometry width="50" height="50" relative="1" as="geometry">
            <mxPoint x="259.8" y="920" as="sourcePoint" />
            <mxPoint x="259.8" y="900" as="targetPoint" />
          </mxGeometry>
        </mxCell>
        <mxCell id="1gPgea0F7_Sr2rKvdzRI-88" value="iLow" style="edgeLabel;html=1;align=center;verticalAlign=middle;resizable=0;points=[];fontSize=8;" vertex="1" connectable="0" parent="1gPgea0F7_Sr2rKvdzRI-87">
          <mxGeometry x="-0.28" y="1" relative="1" as="geometry">
            <mxPoint y="7" as="offset" />
          </mxGeometry>
        </mxCell>
        <mxCell id="1gPgea0F7_Sr2rKvdzRI-89" value="chrFreq&lt;div&gt;a:1&lt;/div&gt;&lt;div&gt;b:1&lt;/div&gt;&lt;div&gt;c:1&lt;/div&gt;" style="text;html=1;align=center;verticalAlign=middle;whiteSpace=wrap;rounded=0;" vertex="1" parent="1">
          <mxGeometry x="340" y="860" width="60" height="50" as="geometry" />
        </mxCell>
        <mxCell id="1gPgea0F7_Sr2rKvdzRI-90" value="&lt;div&gt;5&lt;/div&gt;count += iLow+1" style="text;html=1;align=center;verticalAlign=middle;whiteSpace=wrap;rounded=0;" vertex="1" parent="1">
          <mxGeometry x="414" y="870" width="96" height="30" as="geometry" />
        </mxCell>
        <mxCell id="1gPgea0F7_Sr2rKvdzRI-92" value="&lt;div&gt;1&lt;/div&gt;count += iLow+1" style="text;html=1;align=center;verticalAlign=middle;whiteSpace=wrap;rounded=0;" vertex="1" parent="1">
          <mxGeometry x="414" y="760" width="96" height="30" as="geometry" />
        </mxCell>
        <mxCell id="1gPgea0F7_Sr2rKvdzRI-93" value="&lt;div&gt;1&lt;/div&gt;count += iLow+1" style="text;html=1;align=center;verticalAlign=middle;whiteSpace=wrap;rounded=0;" vertex="1" parent="1">
          <mxGeometry x="414" y="660" width="96" height="30" as="geometry" />
        </mxCell>
        <mxCell id="1gPgea0F7_Sr2rKvdzRI-94" value="&lt;div&gt;1&lt;/div&gt;count += iLow+1" style="text;html=1;align=center;verticalAlign=middle;whiteSpace=wrap;rounded=0;" vertex="1" parent="1">
          <mxGeometry x="414" y="550" width="96" height="30" as="geometry" />
        </mxCell>
        <mxCell id="1gPgea0F7_Sr2rKvdzRI-95" value="&lt;div&gt;1&lt;/div&gt;count += iLow+1" style="text;html=1;align=center;verticalAlign=middle;whiteSpace=wrap;rounded=0;" vertex="1" parent="1">
          <mxGeometry x="414" y="440" width="96" height="30" as="geometry" />
        </mxCell>
        <mxCell id="1gPgea0F7_Sr2rKvdzRI-96" value="&lt;div&gt;0&lt;/div&gt;count += iLow+1" style="text;html=1;align=center;verticalAlign=middle;whiteSpace=wrap;rounded=0;" vertex="1" parent="1">
          <mxGeometry x="400" y="350" width="96" height="30" as="geometry" />
        </mxCell>
        <mxCell id="1gPgea0F7_Sr2rKvdzRI-97" value="-1" style="text;html=1;align=center;verticalAlign=middle;whiteSpace=wrap;rounded=0;" vertex="1" parent="1">
          <mxGeometry x="110" y="280" width="60" height="30" as="geometry" />
        </mxCell>
        <mxCell id="1gPgea0F7_Sr2rKvdzRI-98" value="&lt;div&gt;0&lt;/div&gt;count += iLow+1" style="text;html=1;align=center;verticalAlign=middle;whiteSpace=wrap;rounded=0;" vertex="1" parent="1">
          <mxGeometry x="400" y="260" width="96" height="30" as="geometry" />
        </mxCell>
      </root>
    </mxGraphModel>
  </diagram>
</mxfile>
